<svg xmlns="http://www.w3.org/2000/svg" viewBox="0 0 1000 3115" width="1000" height="3115">

    <defs>
        <style>
            .bg { fill: #0f172a; }
            .header-title { font-family: system-ui, -apple-system, sans-serif; font-size: 26px; font-weight: 800; fill: #f8fafc; }
            .header-sub { font-family: system-ui, -apple-system, sans-serif; font-size: 14px; fill: #94a3b8; }
            .sec-title { font-family: system-ui, -apple-system, sans-serif; font-size: 18px; font-weight: 700; }
            .card-bg { fill: #1e293b; rx: 8px; ry: 8px; stroke: #334155; stroke-width: 1.5; }
            .card-name { font-family: system-ui, -apple-system, sans-serif; font-size: 15px; font-weight: 600; fill: #f1f5f9; }
            .card-detail { font-family: system-ui, -apple-system, sans-serif; font-size: 13px; fill: #94a3b8; }
            .badge-bg { rx: 12px; ry: 12px; }
            .badge-txt { font-family: system-ui, -apple-system, sans-serif; font-size: 14px; font-weight: 800; fill: #0f172a; text-anchor: middle; }
            .id-txt { font-family: monospace; font-size: 12px; fill: #64748b; }
        </style>
        <linearGradient id="grad-header" x1="0%" y1="0%" x2="100%" y2="0%">
            <stop offset="0%" stop-color="#38bdf8" stop-opacity="0.2"/>
            <stop offset="100%" stop-color="#818cf8" stop-opacity="0.05"/>
        </linearGradient>
    </defs>
    
<rect width="1000" height="3115" class="bg" />
<rect x="20" y="20" width="960" height="60" rx="10" fill="url(#grad-header)" stroke="#38bdf8" stroke-opacity="0.3" stroke-width="1" />
<text x="40" y="58" class="header-title">⚡ Deck PTCG MuZero</text>
<text x="960" y="56" class="header-sub" text-anchor="end">Total cartes : <tspan font-weight="bold" fill="#38bdf8">60</tspan> / 60</text>
<text x="30" y="120" class="sec-title" fill="#e53e3e">● Pokémon (33)</text>
<line x1="30" y1="130" x2="970" y2="130" stroke="#e53e3e" stroke-opacity="0.3" stroke-width="2" />
<g transform="translate(30, 145)">
<rect width="940" height="42" class="card-bg" />
<rect x="10" y="8" width="36" height="26" class="badge-bg" fill="#e53e3e" />
<text x="28" y="25" class="badge-txt">1x</text>
<text x="60" y="26" class="card-name">Team Rocket's Crobat ex ex</text>
<text x="320" y="26" class="card-detail">Stage: Stage 2 Pokémon | HP: 310 | Type: {D}</text>
<text x="920" y="26" class="id-txt" text-anchor="end">ID #458</text>
</g>
<g transform="translate(30, 195)">
<rect width="940" height="42" class="card-bg" />
<rect x="10" y="8" width="36" height="26" class="badge-bg" fill="#e53e3e" />
<text x="28" y="25" class="badge-txt">1x</text>
<text x="60" y="26" class="card-name">Glalie</text>
<text x="320" y="26" class="card-detail">Stage: Stage 1 Pokémon | HP: 120 | Type: {W}</text>
<text x="920" y="26" class="id-txt" text-anchor="end">ID #940</text>
</g>
<g transform="translate(30, 245)">
<rect width="940" height="42" class="card-bg" />
<rect x="10" y="8" width="36" height="26" class="badge-bg" fill="#e53e3e" />
<text x="28" y="25" class="badge-txt">1x</text>
<text x="60" y="26" class="card-name">Quaquaval</text>
<text x="320" y="26" class="card-detail">Stage: Stage 2 Pokémon | HP: 170 | Type: {W}</text>
<text x="920" y="26" class="id-txt" text-anchor="end">ID #182</text>
</g>
<g transform="translate(30, 295)">
<rect width="940" height="42" class="card-bg" />
<rect x="10" y="8" width="36" height="26" class="badge-bg" fill="#e53e3e" />
<text x="28" y="25" class="badge-txt">1x</text>
<text x="60" y="26" class="card-name">Shuppet</text>
<text x="320" y="26" class="card-detail">Stage: Basic Pokémon | HP: 60 | Type: {P}</text>
<text x="920" y="26" class="id-txt" text-anchor="end">ID #963</text>
</g>
<g transform="translate(30, 345)">
<rect width="940" height="42" class="card-bg" />
<rect x="10" y="8" width="36" height="26" class="badge-bg" fill="#e53e3e" />
<text x="28" y="25" class="badge-txt">1x</text>
<text x="60" y="26" class="card-name">Slowpoke</text>
<text x="320" y="26" class="card-detail">Stage: Basic Pokémon | HP: 80 | Type: {P}</text>
<text x="920" y="26" class="id-txt" text-anchor="end">ID #162</text>
</g>
<g transform="translate(30, 395)">
<rect width="940" height="42" class="card-bg" />
<rect x="10" y="8" width="36" height="26" class="badge-bg" fill="#e53e3e" />
<text x="28" y="25" class="badge-txt">1x</text>
<text x="60" y="26" class="card-name">Terapagos</text>
<text x="320" y="26" class="card-detail">Stage: Basic Pokémon | HP: 120 | Type: {C}</text>
<text x="920" y="26" class="id-txt" text-anchor="end">ID #234</text>
</g>
<g transform="translate(30, 445)">
<rect width="940" height="42" class="card-bg" />
<rect x="10" y="8" width="36" height="26" class="badge-bg" fill="#e53e3e" />
<text x="28" y="25" class="badge-txt">1x</text>
<text x="60" y="26" class="card-name">Zacian ex ex</text>
<text x="320" y="26" class="card-detail">Stage: Basic Pokémon | HP: 220 | Type: {M}</text>
<text x="920" y="26" class="id-txt" text-anchor="end">ID #336</text>
</g>
<g transform="translate(30, 495)">
<rect width="940" height="42" class="card-bg" />
<rect x="10" y="8" width="36" height="26" class="badge-bg" fill="#e53e3e" />
<text x="28" y="25" class="badge-txt">1x</text>
<text x="60" y="26" class="card-name">Azumarill</text>
<text x="320" y="26" class="card-detail">Stage: Stage 1 Pokémon | HP: 120 | Type: {P}</text>
<text x="920" y="26" class="id-txt" text-anchor="end">ID #315</text>
</g>
<g transform="translate(30, 545)">
<rect width="940" height="42" class="card-bg" />
<rect x="10" y="8" width="36" height="26" class="badge-bg" fill="#e53e3e" />
<text x="28" y="25" class="badge-txt">1x</text>
<text x="60" y="26" class="card-name">Mega Skarmory ex ex</text>
<text x="320" y="26" class="card-detail">Stage: Basic Pokémon | HP: 260 | Type: {M}</text>
<text x="920" y="26" class="id-txt" text-anchor="end">ID #1064</text>
</g>
<g transform="translate(30, 595)">
<rect width="940" height="42" class="card-bg" />
<rect x="10" y="8" width="36" height="26" class="badge-bg" fill="#e53e3e" />
<text x="28" y="25" class="badge-txt">1x</text>
<text x="60" y="26" class="card-name">Shedinja</text>
<text x="320" y="26" class="card-detail">Stage: Stage 1 Pokémon | HP: 60 | Type: {P}</text>
<text x="920" y="26" class="id-txt" text-anchor="end">ID #748</text>
</g>
<g transform="translate(30, 645)">
<rect width="940" height="42" class="card-bg" />
<rect x="10" y="8" width="36" height="26" class="badge-bg" fill="#e53e3e" />
<text x="28" y="25" class="badge-txt">1x</text>
<text x="60" y="26" class="card-name">Marill</text>
<text x="320" y="26" class="card-detail">Stage: Basic Pokémon | HP: 70 | Type: {W}</text>
<text x="920" y="26" class="id-txt" text-anchor="end">ID #314</text>
</g>
<g transform="translate(30, 695)">
<rect width="940" height="42" class="card-bg" />
<rect x="10" y="8" width="36" height="26" class="badge-bg" fill="#e53e3e" />
<text x="28" y="25" class="badge-txt">1x</text>
<text x="60" y="26" class="card-name">Swellow</text>
<text x="320" y="26" class="card-detail">Stage: Stage 1 Pokémon | HP: 100 | Type: {C}</text>
<text x="920" y="26" class="id-txt" text-anchor="end">ID #477</text>
</g>
<g transform="translate(30, 745)">
<rect width="940" height="42" class="card-bg" />
<rect x="10" y="8" width="36" height="26" class="badge-bg" fill="#e53e3e" />
<text x="28" y="25" class="badge-txt">1x</text>
<text x="60" y="26" class="card-name">Darmanitan</text>
<text x="320" y="26" class="card-detail">Stage: Stage 1 Pokémon | HP: 140 | Type: {R}</text>
<text x="920" y="26" class="id-txt" text-anchor="end">ID #492</text>
</g>
<g transform="translate(30, 795)">
<rect width="940" height="42" class="card-bg" />
<rect x="10" y="8" width="36" height="26" class="badge-bg" fill="#e53e3e" />
<text x="28" y="25" class="badge-txt">1x</text>
<text x="60" y="26" class="card-name">Durant</text>
<text x="320" y="26" class="card-detail">Stage: Basic Pokémon | HP: 110 | Type: {M}</text>
<text x="920" y="26" class="id-txt" text-anchor="end">ID #624</text>
</g>
<g transform="translate(30, 845)">
<rect width="940" height="42" class="card-bg" />
<rect x="10" y="8" width="36" height="26" class="badge-bg" fill="#e53e3e" />
<text x="28" y="25" class="badge-txt">1x</text>
<text x="60" y="26" class="card-name">Haunter</text>
<text x="320" y="26" class="card-detail">Stage: Stage 1 Pokémon | HP: 100 | Type: {D}</text>
<text x="920" y="26" class="id-txt" text-anchor="end">ID #1058</text>
</g>
<g transform="translate(30, 895)">
<rect width="940" height="42" class="card-bg" />
<rect x="10" y="8" width="36" height="26" class="badge-bg" fill="#e53e3e" />
<text x="28" y="25" class="badge-txt">1x</text>
<text x="60" y="26" class="card-name">Regice ex ex</text>
<text x="320" y="26" class="card-detail">Stage: Basic Pokémon | HP: 230 | Type: {W}</text>
<text x="920" y="26" class="id-txt" text-anchor="end">ID #944</text>
</g>
<g transform="translate(30, 945)">
<rect width="940" height="42" class="card-bg" />
<rect x="10" y="8" width="36" height="26" class="badge-bg" fill="#e53e3e" />
<text x="28" y="25" class="badge-txt">1x</text>
<text x="60" y="26" class="card-name">Murkrow</text>
<text x="320" y="26" class="card-detail">Stage: Basic Pokémon | HP: 60 | Type: {D}</text>
<text x="920" y="26" class="id-txt" text-anchor="end">ID #773</text>
</g>
<g transform="translate(30, 995)">
<rect width="940" height="42" class="card-bg" />
<rect x="10" y="8" width="36" height="26" class="badge-bg" fill="#e53e3e" />
<text x="28" y="25" class="badge-txt">1x</text>
<text x="60" y="26" class="card-name">Arven's Maschiff</text>
<text x="320" y="26" class="card-detail">Stage: Basic Pokémon | HP: 70 | Type: {D}</text>
<text x="920" y="26" class="id-txt" text-anchor="end">ID #388</text>
</g>
<g transform="translate(30, 1045)">
<rect width="940" height="42" class="card-bg" />
<rect x="10" y="8" width="36" height="26" class="badge-bg" fill="#e53e3e" />
<text x="28" y="25" class="badge-txt">1x</text>
<text x="60" y="26" class="card-name">Riolu</text>
<text x="320" y="26" class="card-detail">Stage: Basic Pokémon | HP: 80 | Type: {F}</text>
<text x="920" y="26" class="id-txt" text-anchor="end">ID #677</text>
</g>
<g transform="translate(30, 1095)">
<rect width="940" height="42" class="card-bg" />
<rect x="10" y="8" width="36" height="26" class="badge-bg" fill="#e53e3e" />
<text x="28" y="25" class="badge-txt">1x</text>
<text x="60" y="26" class="card-name">Gorebyss</text>
<text x="320" y="26" class="card-detail">Stage: Stage 1 Pokémon | HP: 90 | Type: {W}</text>
<text x="920" y="26" class="id-txt" text-anchor="end">ID #417</text>
</g>
<g transform="translate(30, 1145)">
<rect width="940" height="42" class="card-bg" />
<rect x="10" y="8" width="36" height="26" class="badge-bg" fill="#e53e3e" />
<text x="28" y="25" class="badge-txt">1x</text>
<text x="60" y="26" class="card-name">Skeledirge</text>
<text x="320" y="26" class="card-detail">Stage: Stage 2 Pokémon | HP: 180 | Type: {R}</text>
<text x="920" y="26" class="id-txt" text-anchor="end">ID #203</text>
</g>
<g transform="translate(30, 1195)">
<rect width="940" height="42" class="card-bg" />
<rect x="10" y="8" width="36" height="26" class="badge-bg" fill="#e53e3e" />
<text x="28" y="25" class="badge-txt">1x</text>
<text x="60" y="26" class="card-name">Rowlet</text>
<text x="320" y="26" class="card-detail">Stage: Basic Pokémon | HP: 80 | Type: {G}</text>
<text x="920" y="26" class="id-txt" text-anchor="end">ID #1020</text>
</g>
<g transform="translate(30, 1245)">
<rect width="940" height="42" class="card-bg" />
<rect x="10" y="8" width="36" height="26" class="badge-bg" fill="#e53e3e" />
<text x="28" y="25" class="badge-txt">1x</text>
<text x="60" y="26" class="card-name">Magneton</text>
<text x="320" y="26" class="card-detail">Stage: Stage 1 Pokémon | HP: 90 | Type: {L}</text>
<text x="920" y="26" class="id-txt" text-anchor="end">ID #733</text>
</g>
<g transform="translate(30, 1295)">
<rect width="940" height="42" class="card-bg" />
<rect x="10" y="8" width="36" height="26" class="badge-bg" fill="#e53e3e" />
<text x="28" y="25" class="badge-txt">1x</text>
<text x="60" y="26" class="card-name">Landorus</text>
<text x="320" y="26" class="card-detail">Stage: Basic Pokémon | HP: 120 | Type: {F}</text>
<text x="920" y="26" class="id-txt" text-anchor="end">ID #1050</text>
</g>
<g transform="translate(30, 1345)">
<rect width="940" height="42" class="card-bg" />
<rect x="10" y="8" width="36" height="26" class="badge-bg" fill="#e53e3e" />
<text x="28" y="25" class="badge-txt">1x</text>
<text x="60" y="26" class="card-name">Spinarak</text>
<text x="320" y="26" class="card-detail">Stage: Basic Pokémon | HP: 60 | Type: {G}</text>
<text x="920" y="26" class="id-txt" text-anchor="end">ID #1011</text>
</g>
<g transform="translate(30, 1395)">
<rect width="940" height="42" class="card-bg" />
<rect x="10" y="8" width="36" height="26" class="badge-bg" fill="#e53e3e" />
<text x="28" y="25" class="badge-txt">1x</text>
<text x="60" y="26" class="card-name">Team Rocket's Spidops</text>
<text x="320" y="26" class="card-detail">Stage: Stage 1 Pokémon | HP: 130 | Type: {G}</text>
<text x="920" y="26" class="id-txt" text-anchor="end">ID #401</text>
</g>
<g transform="translate(30, 1445)">
<rect width="940" height="42" class="card-bg" />
<rect x="10" y="8" width="36" height="26" class="badge-bg" fill="#e53e3e" />
<text x="28" y="25" class="badge-txt">1x</text>
<text x="60" y="26" class="card-name">Genesect</text>
<text x="320" y="26" class="card-detail">Stage: Basic Pokémon | HP: 120 | Type: {G}</text>
<text x="920" y="26" class="id-txt" text-anchor="end">ID #785</text>
</g>
<g transform="translate(30, 1495)">
<rect width="940" height="42" class="card-bg" />
<rect x="10" y="8" width="36" height="26" class="badge-bg" fill="#e53e3e" />
<text x="28" y="25" class="badge-txt">1x</text>
<text x="60" y="26" class="card-name">Charmander</text>
<text x="320" y="26" class="card-detail">Stage: Basic Pokémon | HP: 80 | Type: {R}</text>
<text x="920" y="26" class="id-txt" text-anchor="end">ID #788</text>
</g>
<g transform="translate(30, 1545)">
<rect width="940" height="42" class="card-bg" />
<rect x="10" y="8" width="36" height="26" class="badge-bg" fill="#e53e3e" />
<text x="28" y="25" class="badge-txt">1x</text>
<text x="60" y="26" class="card-name">Dragapult ex ex</text>
<text x="320" y="26" class="card-detail">Stage: Stage 2 Pokémon | HP: 320 | Type: 竜</text>
<text x="920" y="26" class="id-txt" text-anchor="end">ID #121</text>
</g>
<g transform="translate(30, 1595)">
<rect width="940" height="42" class="card-bg" />
<rect x="10" y="8" width="36" height="26" class="badge-bg" fill="#e53e3e" />
<text x="28" y="25" class="badge-txt">1x</text>
<text x="60" y="26" class="card-name">Centiskorch</text>
<text x="320" y="26" class="card-detail">Stage: Stage 1 Pokémon | HP: 130 | Type: {R}</text>
<text x="920" y="26" class="id-txt" text-anchor="end">ID #934</text>
</g>
<g transform="translate(30, 1645)">
<rect width="940" height="42" class="card-bg" />
<rect x="10" y="8" width="36" height="26" class="badge-bg" fill="#e53e3e" />
<text x="28" y="25" class="badge-txt">1x</text>
<text x="60" y="26" class="card-name">Whirlipede</text>
<text x="320" y="26" class="card-detail">Stage: Stage 1 Pokémon | HP: 100 | Type: {D}</text>
<text x="920" y="26" class="id-txt" text-anchor="end">ID #981</text>
</g>
<g transform="translate(30, 1695)">
<rect width="940" height="42" class="card-bg" />
<rect x="10" y="8" width="36" height="26" class="badge-bg" fill="#e53e3e" />
<text x="28" y="25" class="badge-txt">1x</text>
<text x="60" y="26" class="card-name">Togedemaru ex ex</text>
<text x="320" y="26" class="card-detail">Stage: Basic Pokémon | HP: 190 | Type: {M}</text>
<text x="920" y="26" class="id-txt" text-anchor="end">ID #990</text>
</g>
<g transform="translate(30, 1745)">
<rect width="940" height="42" class="card-bg" />
<rect x="10" y="8" width="36" height="26" class="badge-bg" fill="#e53e3e" />
<text x="28" y="25" class="badge-txt">1x</text>
<text x="60" y="26" class="card-name">Beldum</text>
<text x="320" y="26" class="card-detail">Stage: Basic Pokémon | HP: 60 | Type: {P}</text>
<text x="920" y="26" class="id-txt" text-anchor="end">ID #274</text>
</g>
<text x="30" y="1830" class="sec-title" fill="#3182ce">● Dresseurs (Trainers) (13)</text>
<line x1="30" y1="1840" x2="970" y2="1840" stroke="#3182ce" stroke-opacity="0.3" stroke-width="2" />
<g transform="translate(30, 1855)">
<rect width="940" height="42" class="card-bg" />
<rect x="10" y="8" width="36" height="26" class="badge-bg" fill="#3182ce" />
<text x="28" y="25" class="badge-txt">1x</text>
<text x="60" y="26" class="card-name">Energy Search</text>
<text x="320" y="26" class="card-detail">Stage: Item | Type: n/a</text>
<text x="920" y="26" class="id-txt" text-anchor="end">ID #1119</text>
</g>
<g transform="translate(30, 1905)">
<rect width="940" height="42" class="card-bg" />
<rect x="10" y="8" width="36" height="26" class="badge-bg" fill="#3182ce" />
<text x="28" y="25" class="badge-txt">1x</text>
<text x="60" y="26" class="card-name">Core Memory</text>
<text x="320" y="26" class="card-detail">Stage: Pokémon Tool | Type: n/a</text>
<text x="920" y="26" class="id-txt" text-anchor="end">ID #1180</text>
</g>
<g transform="translate(30, 1955)">
<rect width="940" height="42" class="card-bg" />
<rect x="10" y="8" width="36" height="26" class="badge-bg" fill="#3182ce" />
<text x="28" y="25" class="badge-txt">1x</text>
<text x="60" y="26" class="card-name">Wally's Compassion</text>
<text x="320" y="26" class="card-detail">Stage: Supporter | Type: n/a</text>
<text x="920" y="26" class="id-txt" text-anchor="end">ID #1229</text>
</g>
<g transform="translate(30, 2005)">
<rect width="940" height="42" class="card-bg" />
<rect x="10" y="8" width="36" height="26" class="badge-bg" fill="#3182ce" />
<text x="28" y="25" class="badge-txt">1x</text>
<text x="60" y="26" class="card-name">Firebreather</text>
<text x="320" y="26" class="card-detail">Stage: Supporter | Type: n/a</text>
<text x="920" y="26" class="id-txt" text-anchor="end">ID #1232</text>
</g>
<g transform="translate(30, 2055)">
<rect width="940" height="42" class="card-bg" />
<rect x="10" y="8" width="36" height="26" class="badge-bg" fill="#3182ce" />
<text x="28" y="25" class="badge-txt">1x</text>
<text x="60" y="26" class="card-name">Explorer’s Guidance</text>
<text x="320" y="26" class="card-detail">Stage: Supporter | Type: n/a</text>
<text x="920" y="26" class="id-txt" text-anchor="end">ID #1185</text>
</g>
<g transform="translate(30, 2105)">
<rect width="940" height="42" class="card-bg" />
<rect x="10" y="8" width="36" height="26" class="badge-bg" fill="#3182ce" />
<text x="28" y="25" class="badge-txt">1x</text>
<text x="60" y="26" class="card-name">Academy at Night</text>
<text x="320" y="26" class="card-detail">Stage: Stadium | Type: n/a</text>
<text x="920" y="26" class="id-txt" text-anchor="end">ID #1248</text>
</g>
<g transform="translate(30, 2155)">
<rect width="940" height="42" class="card-bg" />
<rect x="10" y="8" width="36" height="26" class="badge-bg" fill="#3182ce" />
<text x="28" y="25" class="badge-txt">1x</text>
<text x="60" y="26" class="card-name">Risky Ruins</text>
<text x="320" y="26" class="card-detail">Stage: Stadium | Type: n/a</text>
<text x="920" y="26" class="id-txt" text-anchor="end">ID #1260</text>
</g>
<g transform="translate(30, 2205)">
<rect width="940" height="42" class="card-bg" />
<rect x="10" y="8" width="36" height="26" class="badge-bg" fill="#3182ce" />
<text x="28" y="25" class="badge-txt">1x</text>
<text x="60" y="26" class="card-name">Tarragon</text>
<text x="320" y="26" class="card-detail">Stage: Supporter | Type: n/a</text>
<text x="920" y="26" class="id-txt" text-anchor="end">ID #1238</text>
</g>
<g transform="translate(30, 2255)">
<rect width="940" height="42" class="card-bg" />
<rect x="10" y="8" width="36" height="26" class="badge-bg" fill="#3182ce" />
<text x="28" y="25" class="badge-txt">1x</text>
<text x="60" y="26" class="card-name">Sacred Ash</text>
<text x="320" y="26" class="card-detail">Stage: Item | Type: n/a</text>
<text x="920" y="26" class="id-txt" text-anchor="end">ID #1129</text>
</g>
<g transform="translate(30, 2305)">
<rect width="940" height="42" class="card-bg" />
<rect x="10" y="8" width="36" height="26" class="badge-bg" fill="#3182ce" />
<text x="28" y="25" class="badge-txt">1x</text>
<text x="60" y="26" class="card-name">Gravity Gemstone</text>
<text x="320" y="26" class="card-detail">Stage: Pokémon Tool | Type: n/a</text>
<text x="920" y="26" class="id-txt" text-anchor="end">ID #1166</text>
</g>
<g transform="translate(30, 2355)">
<rect width="940" height="42" class="card-bg" />
<rect x="10" y="8" width="36" height="26" class="badge-bg" fill="#3182ce" />
<text x="28" y="25" class="badge-txt">1x</text>
<text x="60" y="26" class="card-name">Dragon Elixir</text>
<text x="320" y="26" class="card-detail">Stage: Item | Type: n/a</text>
<text x="920" y="26" class="id-txt" text-anchor="end">ID #1105</text>
</g>
<g transform="translate(30, 2405)">
<rect width="940" height="42" class="card-bg" />
<rect x="10" y="8" width="36" height="26" class="badge-bg" fill="#3182ce" />
<text x="28" y="25" class="badge-txt">1x</text>
<text x="60" y="26" class="card-name">Team Rocket's Petrel</text>
<text x="320" y="26" class="card-detail">Stage: Supporter | Type: n/a</text>
<text x="920" y="26" class="id-txt" text-anchor="end">ID #1219</text>
</g>
<g transform="translate(30, 2455)">
<rect width="940" height="42" class="card-bg" />
<rect x="10" y="8" width="36" height="26" class="badge-bg" fill="#3182ce" />
<text x="28" y="25" class="badge-txt">1x</text>
<text x="60" y="26" class="card-name">Gravity Mountain</text>
<text x="320" y="26" class="card-detail">Stage: Stadium | Type: n/a</text>
<text x="920" y="26" class="id-txt" text-anchor="end">ID #1252</text>
</g>
<text x="30" y="2540" class="sec-title" fill="#d69e2e">● Énergies (14)</text>
<line x1="30" y1="2550" x2="970" y2="2550" stroke="#d69e2e" stroke-opacity="0.3" stroke-width="2" />
<g transform="translate(30, 2565)">
<rect width="940" height="42" class="card-bg" />
<rect x="10" y="8" width="36" height="26" class="badge-bg" fill="#d69e2e" />
<text x="28" y="25" class="badge-txt">3x</text>
<text x="60" y="26" class="card-name">Boomerang Energy</text>
<text x="320" y="26" class="card-detail">Stage: Special Energy | Type: {C}</text>
<text x="920" y="26" class="id-txt" text-anchor="end">ID #9</text>
</g>
<g transform="translate(30, 2615)">
<rect width="940" height="42" class="card-bg" />
<rect x="10" y="8" width="36" height="26" class="badge-bg" fill="#d69e2e" />
<text x="28" y="25" class="badge-txt">2x</text>
<text x="60" y="26" class="card-name">Legacy Energy</text>
<text x="320" y="26" class="card-detail">Stage: Special Energy | Type: {A}</text>
<text x="920" y="26" class="id-txt" text-anchor="end">ID #12</text>
</g>
<g transform="translate(30, 2665)">
<rect width="940" height="42" class="card-bg" />
<rect x="10" y="8" width="36" height="26" class="badge-bg" fill="#d69e2e" />
<text x="28" y="25" class="badge-txt">1x</text>
<text x="60" y="26" class="card-name">Basic {P} Energy</text>
<text x="320" y="26" class="card-detail">Stage: Basic Energy | Type: {P}</text>
<text x="920" y="26" class="id-txt" text-anchor="end">ID #5</text>
</g>
<g transform="translate(30, 2715)">
<rect width="940" height="42" class="card-bg" />
<rect x="10" y="8" width="36" height="26" class="badge-bg" fill="#d69e2e" />
<text x="28" y="25" class="badge-txt">1x</text>
<text x="60" y="26" class="card-name">Neo Upper Energy</text>
<text x="320" y="26" class="card-detail">Stage: Special Energy | Type: {A}{A}</text>
<text x="920" y="26" class="id-txt" text-anchor="end">ID #10</text>
</g>
<g transform="translate(30, 2765)">
<rect width="940" height="42" class="card-bg" />
<rect x="10" y="8" width="36" height="26" class="badge-bg" fill="#d69e2e" />
<text x="28" y="25" class="badge-txt">1x</text>
<text x="60" y="26" class="card-name">Enriching Energy</text>
<text x="320" y="26" class="card-detail">Stage: Special Energy | Type: {C}</text>
<text x="920" y="26" class="id-txt" text-anchor="end">ID #13</text>
</g>
<g transform="translate(30, 2815)">
<rect width="940" height="42" class="card-bg" />
<rect x="10" y="8" width="36" height="26" class="badge-bg" fill="#d69e2e" />
<text x="28" y="25" class="badge-txt">1x</text>
<text x="60" y="26" class="card-name">Basic {M} Energy</text>
<text x="320" y="26" class="card-detail">Stage: Basic Energy | Type: {M}</text>
<text x="920" y="26" class="id-txt" text-anchor="end">ID #8</text>
</g>
<g transform="translate(30, 2865)">
<rect width="940" height="42" class="card-bg" />
<rect x="10" y="8" width="36" height="26" class="badge-bg" fill="#d69e2e" />
<text x="28" y="25" class="badge-txt">1x</text>
<text x="60" y="26" class="card-name">Telepath Psychic Energy</text>
<text x="320" y="26" class="card-detail">Stage: Special Energy | Type: {P}</text>
<text x="920" y="26" class="id-txt" text-anchor="end">ID #19</text>
</g>
<g transform="translate(30, 2915)">
<rect width="940" height="42" class="card-bg" />
<rect x="10" y="8" width="36" height="26" class="badge-bg" fill="#d69e2e" />
<text x="28" y="25" class="badge-txt">1x</text>
<text x="60" y="26" class="card-name">Basic {D} Energy</text>
<text x="320" y="26" class="card-detail">Stage: Basic Energy | Type: {D}</text>
<text x="920" y="26" class="id-txt" text-anchor="end">ID #7</text>
</g>
<g transform="translate(30, 2965)">
<rect width="940" height="42" class="card-bg" />
<rect x="10" y="8" width="36" height="26" class="badge-bg" fill="#d69e2e" />
<text x="28" y="25" class="badge-txt">1x</text>
<text x="60" y="26" class="card-name">Team Rocket's Energy</text>
<text x="320" y="26" class="card-detail">Stage: Special Energy | Type: {Team Rocket}{Team Rocket}</text>
<text x="920" y="26" class="id-txt" text-anchor="end">ID #15</text>
</g>
<g transform="translate(30, 3015)">
<rect width="940" height="42" class="card-bg" />
<rect x="10" y="8" width="36" height="26" class="badge-bg" fill="#d69e2e" />
<text x="28" y="25" class="badge-txt">1x</text>
<text x="60" y="26" class="card-name">Basic {L} Energy</text>
<text x="320" y="26" class="card-detail">Stage: Basic Energy | Type: {L}</text>
<text x="920" y="26" class="id-txt" text-anchor="end">ID #4</text>
</g>
<g transform="translate(30, 3065)">
<rect width="940" height="42" class="card-bg" />
<rect x="10" y="8" width="36" height="26" class="badge-bg" fill="#d69e2e" />
<text x="28" y="25" class="badge-txt">1x</text>
<text x="60" y="26" class="card-name">Ignition Energy</text>
<text x="320" y="26" class="card-detail">Stage: Special Energy | Type: {C}{C}{C}</text>
<text x="920" y="26" class="id-txt" text-anchor="end">ID #17</text>
</g>
</svg>